<?xml version="1.0" standalone="no"?>
<!DOCTYPE svg PUBLIC "-//W3C//DTD SVG 20010904//EN"
 "http://www.w3.org/TR/2001/REC-SVG-20010904/DTD/svg10.dtd">
<svg version="1.0" xmlns="http://www.w3.org/2000/svg"
 width="434.000000pt" height="575.000000pt" viewBox="0 0 434.000000 575.000000"
 preserveAspectRatio="xMidYMid meet">

<g transform="translate(0.000000,575.000000) scale(0.100000,-0.100000)"
fill="#000000" stroke="none">
<path d="M2628 5743 c7 -3 16 -2 19 1 4 3 -2 6 -13 5 -11 0 -14 -3 -6 -6z"/>
<path d="M1210 5726 c0 -5 -18 -6 -40 -3 -22 3 -43 1 -46 -5 -4 -6 -22 -8 -40
-5 -23 4 -32 2 -28 -5 4 -6 -1 -8 -15 -3 -12 4 -21 2 -21 -4 0 -6 -7 -7 -17
-4 -11 4 -14 3 -9 -5 5 -8 2 -10 -8 -6 -35 13 -204 -131 -191 -164 2 -7 1 -11
-4 -8 -5 3 -12 -1 -15 -10 -3 -8 -2 -12 4 -9 13 8 13 4 -5 -38 -8 -19 -20 -57
-26 -84 -12 -54 -13 -754 -3 -1908 4 -379 4 -688 1 -685 -12 12 -16 245 -17
1024 0 456 -2 827 -5 824 -3 -2 -5 -365 -5 -806 0 -441 -3 -802 -5 -802 -3 0
-16 7 -30 16 l-24 15 15 -63 c28 -114 32 -161 33 -355 1 -123 -2 -192 -8 -195
-6 -2 -12 -54 -14 -126 -4 -110 -6 -124 -25 -141 -12 -10 -22 -28 -22 -40 0
-23 -25 -29 -33 -7 -6 15 -65 27 -73 15 -2 -4 2 -10 8 -12 8 -3 7 -6 -4 -6
-15 -1 -16 -5 -4 -38 12 -35 11 -38 -8 -48 -12 -6 -20 -18 -20 -27 1 -8 -4
-15 -10 -15 -40 1 -48 -4 -43 -23 5 -18 1 -20 -40 -16 -24 2 -47 7 -50 10 -12
12 -32 -28 -21 -41 18 -22 -13 -15 -57 12 -78 48 -71 22 9 -31 28 -19 76 -52
105 -73 30 -21 72 -44 93 -50 73 -22 105 -48 111 -89 2 -20 0 -43 -6 -50 -7
-8 -7 -16 -1 -20 8 -6 10 -41 5 -109 0 -15 -8 -23 -18 -23 -16 -1 -16 -2 1
-12 18 -10 18 -11 -5 -24 l-24 -13 23 -1 c12 0 22 -5 22 -11 0 -5 -5 -7 -11
-3 -7 4 -9 -1 -7 -12 3 -11 -2 -31 -9 -46 -7 -16 -11 -28 -8 -28 3 0 1 -9 -5
-19 -5 -11 -24 -22 -41 -26 -21 -5 -27 -10 -19 -15 10 -6 9 -9 -1 -12 -8 -3
-11 -8 -8 -12 4 -4 14 0 22 9 17 17 59 15 65 -3 2 -7 8 -12 14 -12 6 0 7 8 4
17 -6 15 -5 15 13 -1 12 -11 18 -27 16 -44 -2 -18 4 -33 18 -45 12 -10 17 -16
11 -13 -7 3 -18 -2 -25 -11 -12 -15 -12 -16 5 -10 17 7 18 6 3 -17 -15 -22
-15 -24 1 -20 24 7 52 -84 58 -193 4 -61 10 -92 20 -100 19 -14 41 -97 53
-194 5 -39 15 -77 21 -83 9 -8 10 0 6 34 -6 48 -12 883 -22 2695 -3 611 -9
1313 -14 1560 -9 432 -9 453 10 533 40 167 131 261 295 307 53 14 177 17 1055
22 1063 6 1133 3 1232 -40 107 -47 186 -141 208 -247 21 -98 42 -3752 21
-3764 -4 -3 -19 -34 -32 -68 -26 -72 -33 -217 -12 -259 52 -101 56 -124 61
-374 l5 -240 65 1 c59 0 67 3 90 30 13 16 45 53 70 82 66 77 84 102 77 102 -4
0 7 16 24 35 64 73 176 271 160 281 -6 3 -14 16 -19 28 -9 21 -9 21 -9 -2 -1
-16 -5 -21 -13 -15 -7 4 -23 6 -35 5 -13 -2 -33 7 -47 20 -43 40 -55 48 -71
48 -8 0 -15 4 -15 9 0 5 -17 12 -37 15 -61 11 -95 27 -89 43 4 11 -1 14 -22
13 -55 -4 -70 1 -101 32 -19 20 -31 42 -31 59 0 15 -4 31 -10 34 -13 8 -6 108
8 113 7 2 12 10 12 18 0 9 4 12 10 9 5 -3 7 0 4 9 -3 9 2 17 15 21 16 5 21 15
21 42 0 30 2 34 14 23 8 -6 16 -21 18 -33 2 -18 11 -23 42 -25 31 -3 41 1 54
20 9 13 39 48 67 78 59 64 135 165 135 179 0 5 5 13 12 17 7 5 8 3 3 -6 -5 -9
-4 -11 4 -6 6 4 9 11 6 16 -3 5 8 24 24 43 32 35 54 117 32 117 -6 0 -11 4
-11 9 0 10 -55 71 -64 71 -3 0 -3 -7 0 -15 8 -20 -49 -21 -65 -1 -14 17 -51
28 -51 15 0 -14 -26 -10 -40 6 -7 8 -16 13 -20 10 -10 -6 -50 29 -50 43 0 6
-6 9 -13 6 -22 -8 -36 18 -38 69 -2 35 -7 47 -18 47 -10 0 -16 9 -16 25 0 14
3 25 7 25 3 0 5 19 3 43 -1 23 2 48 7 55 8 8 6 12 -5 12 -8 0 -17 -5 -19 -12
-2 -6 -10 -8 -16 -4 -9 5 -13 109 -14 399 l-3 392 -5 -380 c-4 -275 -6 -324
-8 -175 -1 113 -4 720 -6 1350 -1 630 0 1015 3 855 4 -159 8 -279 10 -265 1
14 2 149 1 300 -1 201 -5 295 -16 350 -23 109 -76 201 -155 265 -13 11 -4 -3
21 -30 25 -27 32 -38 15 -24 -57 49 -122 88 -186 110 -56 20 -88 23 -244 26
-457 8 -1865 7 -1865 -1z m2360 -236 c0 -5 -2 -10 -4 -10 -3 0 -8 5 -11 10 -3
6 -1 10 4 10 6 0 11 -4 11 -10z m47 -172 c-3 -7 -5 -2 -5 12 0 14 2 19 5 13 2
-7 2 -19 0 -25z m-2870 -2940 c-3 -8 -6 -5 -6 6 -1 11 2 17 5 13 3 -3 4 -12 1
-19z m11 -663 c1 -280 5 -598 8 -706 6 -185 0 -260 -17 -199 -4 14 -6 360 -6
770 0 410 3 723 6 695 3 -27 7 -279 9 -560z m2891 107 c1 -73 -3 -111 -9 -107
-6 4 -9 68 -9 163 1 115 4 144 9 107 5 -27 9 -101 9 -163z m-2919 71 c-1 -36
-2 -37 -15 -19 -16 21 -19 39 -8 49 15 16 23 5 23 -30z m2918 -971 c-1 -215
-6 -200 -10 35 -2 88 0 159 5 156 4 -2 6 -88 5 -191z m40 -120 c-2 -57 -7 -87
-15 -90 -10 -3 -13 20 -13 92 0 82 2 95 15 89 13 -4 15 -21 13 -91z"/>
<path d="M726 5369 c-3 -17 -5 -43 -5 -58 1 -14 5 -2 10 28 10 58 6 83 -5 30z"/>
<path d="M714 5175 c0 -60 1 -84 3 -52 2 32 2 81 0 110 -2 29 -3 3 -3 -58z"/>
<path d="M3641 4494 c0 -11 3 -14 6 -6 3 7 2 16 -1 19 -3 4 -6 -2 -5 -13z"/>
<path d="M3639 4388 c-2 -104 3 -293 7 -297 2 -2 4 77 4 177 0 100 -2 182 -5
182 -3 0 -5 -28 -6 -62z"/>
<path d="M3663 3915 c0 -44 2 -61 4 -37 2 23 2 59 0 80 -2 20 -4 1 -4 -43z"/>
<path d="M3644 3635 c0 -110 2 -156 3 -103 2 53 2 143 0 200 -1 57 -3 13 -3
-97z"/>
<path d="M3643 3395 c0 -22 2 -30 4 -17 2 12 2 30 0 40 -3 9 -5 -1 -4 -23z"/>
<path d="M425 3010 c-3 -5 -1 -10 4 -10 6 0 11 5 11 10 0 6 -2 10 -4 10 -3 0
-8 -4 -11 -10z"/>
<path d="M430 2963 c0 -10 5 -25 10 -33 7 -11 10 -7 10 18 0 17 -4 32 -10 32
-5 0 -10 -8 -10 -17z"/>
<path d="M433 2703 c-7 -3 -13 -9 -13 -15 0 -14 -26 -38 -34 -31 -3 4 -6 -2
-6 -11 0 -12 -5 -16 -14 -13 -10 4 -13 1 -9 -8 3 -8 9 -12 14 -9 12 7 10 -4
-7 -46 -13 -33 -14 -33 -8 -5 l6 30 -24 -25 c-14 -14 -23 -28 -21 -32 7 -14
-30 -117 -40 -111 -6 4 -8 -2 -5 -15 4 -15 2 -19 -8 -15 -14 5 -15 2 -19 -77
0 -19 -5 -53 -9 -75 -5 -28 -4 -36 3 -25 5 8 7 18 5 22 -3 4 -1 8 5 8 5 0 8
-27 7 -65 -2 -35 1 -62 6 -59 4 3 8 14 8 25 0 39 16 10 19 -33 1 -24 6 -47 11
-52 4 -4 8 -2 7 5 0 8 1 42 1 77 2 55 4 62 23 62 13 0 18 4 13 13 -6 10 -4 10
7 0 16 -16 43 -17 34 -2 -4 6 -8 27 -10 47 -2 20 -6 63 -9 95 -6 52 -5 58 11
55 10 -2 23 -16 30 -33 7 -19 12 -24 12 -12 1 10 5 15 11 12 6 -4 7 1 4 12 -4
14 -1 12 15 -6 14 -15 21 -18 21 -9 0 8 -3 18 -7 22 -4 4 -9 36 -10 71 -3 48
-1 65 9 65 8 0 9 3 3 8 -15 11 -15 45 1 56 12 10 12 15 -1 40 -9 16 -14 35
-11 43 6 15 -4 22 -21 16z m-166 -435 c-3 -7 -5 -2 -5 12 0 14 2 19 5 13 2 -7
2 -19 0 -25z"/>
<path d="M515 2660 c-3 -5 -11 -7 -19 -4 -7 3 -13 -1 -13 -9 0 -11 7 -12 34
-4 18 6 33 14 33 19 0 11 -27 10 -35 -2z"/>
<path d="M517 2578 c-7 -26 -3 -32 17 -25 9 4 12 14 9 26 -7 27 -19 27 -26 -1z"/>
<path d="M607 2567 c-3 -7 3 -13 13 -13 10 0 16 6 13 13 -3 7 -9 13 -13 13 -4
0 -10 -6 -13 -13z"/>
<path d="M285 2489 c-4 -6 -5 -12 -2 -15 2 -3 7 2 10 11 7 17 1 20 -8 4z"/>
<path d="M530 2406 c0 -10 71 -47 82 -44 8 3 3 11 -12 20 -27 17 -70 32 -70
24z"/>
<path d="M553 2333 c9 -2 17 -9 17 -14 0 -5 5 -9 11 -9 8 0 8 5 -1 15 -7 8
-20 14 -29 14 -13 -1 -13 -2 2 -6z"/>
<path d="M46 2138 c-9 -18 -16 -42 -16 -53 0 -114 3 -151 16 -222 9 -46 21
-80 25 -77 5 3 9 0 9 -6 0 -6 4 -8 10 -5 5 3 10 11 10 16 0 6 -4 8 -9 4 -18
-11 -34 34 -22 63 6 15 12 36 14 47 1 11 11 32 20 46 19 28 11 73 -14 81 -9 3
-8 12 4 38 22 42 21 43 -5 35 -18 -5 -20 -4 -8 4 12 9 12 13 2 19 -7 5 -10 16
-6 25 12 31 -15 17 -30 -15z"/>
<path d="M378 1973 c7 -3 16 -2 19 1 4 3 -2 6 -13 5 -11 0 -14 -3 -6 -6z"/>
<path d="M190 1886 c0 -7 -7 -19 -15 -26 -8 -7 -15 -18 -15 -24 0 -7 3 -7 8
-1 4 6 16 12 26 13 17 3 18 2 7 -12 -11 -14 -11 -16 3 -16 10 0 16 -8 16 -21
0 -16 -4 -19 -20 -14 -11 4 -20 2 -20 -4 0 -6 3 -11 8 -11 15 0 64 -49 57 -59
-3 -6 0 -8 9 -5 8 3 33 -8 57 -25 23 -17 60 -34 82 -38 22 -3 48 -14 58 -24
16 -16 17 -16 22 2 3 10 2 19 -1 20 -4 0 -16 2 -27 3 -45 6 -63 18 -84 61 -12
25 -26 45 -31 45 -5 0 -17 14 -26 31 -18 36 -92 119 -105 119 -5 0 -9 -6 -9
-14z"/>
<path d="M3820 1674 c8 -3 22 -8 30 -11 8 -4 19 -5 24 -4 5 1 17 -6 27 -15 11
-9 19 -12 19 -6 0 16 47 8 70 -13 15 -14 20 -15 20 -4 0 17 -37 42 -50 34 -4
-3 -10 -1 -12 4 -1 6 -34 13 -73 16 -38 3 -63 2 -55 -1z"/>
<path d="M495 1630 c3 -5 8 -10 11 -10 2 0 4 5 4 10 0 6 -5 10 -11 10 -5 0 -7
-4 -4 -10z"/>
<path d="M390 1609 c0 -5 5 -7 10 -4 6 3 10 8 10 11 0 2 -4 4 -10 4 -5 0 -10
-5 -10 -11z"/>
<path d="M3983 1413 c-25 -5 -30 -18 -10 -26 7 -3 19 4 25 14 7 10 11 18 10
18 -2 -1 -13 -4 -25 -6z"/>
<path d="M3930 1390 c0 -5 5 -10 10 -10 6 0 10 5 10 10 0 6 -4 10 -10 10 -5 0
-10 -4 -10 -10z"/>
<path d="M4095 1360 c3 -5 1 -19 -6 -31 -7 -13 -7 -19 0 -15 5 4 15 -3 21 -15
8 -15 9 -19 1 -15 -7 4 -11 -1 -11 -13 0 -30 18 -26 26 7 4 15 11 29 15 32 4
3 4 12 -1 20 -8 13 -10 12 -10 -2 0 -10 -4 -18 -10 -18 -5 0 -10 14 -10 30 0
17 -5 30 -11 30 -5 0 -7 -4 -4 -10z"/>
<path d="M3465 654 c-30 -30 -57 -98 -62 -154 -6 -66 7 -84 39 -53 23 24 29
51 16 76 -12 24 9 116 28 124 16 6 19 23 5 23 -5 0 -17 -7 -26 -16z"/>
</g>
</svg>
